<?xml version="1.0" standalone="no"?>
<!DOCTYPE svg PUBLIC "-//W3C//DTD SVG 20010904//EN"
 "http://www.w3.org/TR/2001/REC-SVG-20010904/DTD/svg10.dtd">
<svg version="1.0" xmlns="http://www.w3.org/2000/svg"
 width="1024.000000pt" height="1024.000000pt" viewBox="0 0 1024.000000 1024.000000"
 preserveAspectRatio="xMidYMid meet">
<metadata>
Created by potrace 1.14, written by Peter Selinger 2001-2017
</metadata>
<g transform="translate(0.000000,1024.000000) scale(0.100000,-0.100000)"
fill="#000000" stroke="none">
<path d="M0 5120 l0 -5120 5120 0 5120 0 0 5120 0 5120 -5120 0 -5120 0 0
-5120z m3508 1300 c195 -13 314 -39 417 -90 249 -123 408 -406 409 -725 0
-267 -110 -507 -302 -655 -134 -103 -257 -146 -453 -157 l-116 -6 348 -488
c192 -268 349 -490 349 -493 0 -3 -31 -6 -68 -6 l-68 0 -379 536 c-209 295
-381 539 -383 544 -1 4 86 10 195 13 215 6 307 22 411 73 155 76 285 250 332
447 81 338 -71 709 -345 838 -130 61 -134 62 -690 68 l-510 6 -3 39 c-6 70
-30 66 360 66 194 0 417 -5 496 -10z m5772 6 c0 -5 -1393 -2468 -1416 -2503
l-14 -23 655 0 655 0 2 363 3 362 45 0 45 0 3 -412 2 -413 -796 0 -796 0 20
33 c11 17 306 541 657 1162 351 622 664 1176 696 1233 l58 102 -684 0 -685 0
-2 -362 -3 -363 -52 -3 -53 -3 0 409 c0 225 3 412 7 415 7 7 1653 10 1653 3z
m-7460 -30 c36 -10 102 -36 148 -57 149 -69 260 -206 308 -380 28 -99 26 -303
-3 -394 -46 -145 -142 -267 -267 -339 l-68 -40 50 -17 c208 -71 369 -229 436
-429 24 -72 30 -106 34 -220 5 -157 -13 -251 -70 -368 -51 -104 -158 -206
-278 -264 -170 -83 -156 -81 -678 -85 l-463 -4 3 48 3 48 440 6 c418 5 444 7
515 28 217 65 361 206 406 397 22 96 15 293 -14 385 -69 212 -262 363 -509
399 -38 5 -242 10 -455 10 l-388 0 0 50 0 50 298 0 c478 0 587 17 719 109 90
64 143 139 171 248 50 192 32 366 -53 498 -73 114 -179 189 -322 226 -69 18
-120 21 -445 26 l-368 6 0 44 0 44 393 -3 c339 -4 401 -7 457 -22z m4118 -23
l-3 -48 -667 -3 -668 -2 0 -575 0 -575 350 0 350 0 0 -50 0 -50 -347 -2 -348
-3 0 -585 0 -585 668 -3 667 -2 0 -45 0 -45 -722 2 -723 3 -3 1295 c-1 712 0
1301 3 1308 3 9 158 12 725 12 l721 0 -3 -47z m1562 -3 l0 -50 -665 0 -665 0
0 -575 0 -575 345 0 345 0 0 -50 0 -50 -345 0 -345 0 0 -590 0 -590 665 0 665
0 0 -45 0 -45 -720 0 -720 0 0 1310 0 1310 720 0 720 0 0 -50z"/>
</g>
</svg>
