<svg width="48" height="16" viewBox="0 0 48 16" fill="none" xmlns="http://www.w3.org/2000/svg">
<path d="M5.76 7.1C6.45333 7.3 7 7.58 7.4 7.94C7.8 8.3 8.1 8.68 8.3 9.08C8.5 9.46667 8.62667 9.84 8.68 10.2C8.73333 10.5467 8.76 10.8133 8.76 11C8.76 11.9333 8.55333 12.7067 8.14 13.32C7.72667 13.92 7.14 14.3667 6.38 14.66C6.07333 14.8067 5.72 14.9067 5.32 14.96C4.92 15 4.48 15.02 4 15.02H0.26V14.46H4.02C4.40667 14.46 4.78 14.44 5.14 14.4C5.51333 14.3467 5.85333 14.26 6.16 14.14C6.73333 13.9133 7.20667 13.5533 7.58 13.06C7.96667 12.5533 8.16 11.88 8.16 11.04C8.16 10.28 7.98 9.62 7.62 9.06C7.26 8.48667 6.76 8.06667 6.12 7.8C5.92 7.72 5.73333 7.65333 5.56 7.6C5.38667 7.54667 5.2 7.51333 5 7.5C4.81333 7.47333 4.60667 7.46 4.38 7.46C4.15333 7.44667 3.88667 7.44 3.58 7.44H0.26V6.88H3.58C4.02 6.88 4.42 6.85333 4.78 6.8C5.14 6.74667 5.45333 6.64667 5.72 6.5C6.33333 6.15333 6.73333 5.74 6.92 5.26C7.10667 4.76667 7.2 4.25333 7.2 3.72C7.2 3.02667 7.04667 2.45333 6.74 2C6.43333 1.53333 6.09333 1.20667 5.72 1.02C5.49333 0.886666 5.21333 0.779999 4.88 0.699999C4.56 0.606666 4.08 0.559999 3.44 0.559999H0.26V0.0199997H3.44C4.08 0.0199997 4.6 0.0733328 5 0.179999C5.41333 0.273333 5.77333 0.399999 6.08 0.559999C6.42667 0.746666 6.71333 0.973333 6.94 1.24C7.16667 1.49333 7.34 1.76667 7.46 2.06C7.59333 2.34 7.68667 2.62667 7.74 2.92C7.79333 3.21333 7.82 3.5 7.82 3.78C7.82 3.88667 7.80667 4.07333 7.78 4.34C7.76667 4.60667 7.69333 4.90667 7.56 5.24C7.42667 5.56 7.22 5.88667 6.94 6.22C6.67333 6.54 6.28 6.81333 5.76 7.04V7.1ZM19.4602 4.72C19.4602 5.18667 19.3802 5.68667 19.2202 6.22C19.0602 6.75333 18.8002 7.24667 18.4402 7.7C18.0935 8.15333 17.6402 8.53333 17.0802 8.84C16.5202 9.14667 15.8402 9.30667 15.0402 9.32L14.4402 9.34L18.4802 15H17.7002L13.3002 8.78H14.2402C14.6002 8.78 14.9268 8.77333 15.2202 8.76C15.5135 8.73333 15.7935 8.68667 16.0602 8.62C16.3268 8.55333 16.5802 8.46 16.8202 8.34C17.0602 8.22 17.3068 8.05333 17.5602 7.84C18.0268 7.33333 18.3535 6.82667 18.5402 6.32C18.7402 5.8 18.8402 5.24 18.8402 4.64C18.8402 4.32 18.8002 3.99333 18.7202 3.66C18.6402 3.32667 18.5268 3.00667 18.3802 2.7C18.2335 2.39333 18.0468 2.10667 17.8202 1.84C17.5935 1.57333 17.3402 1.34667 17.0602 1.16C16.6068 0.866666 16.0802 0.693332 15.4802 0.639999C14.8935 0.586665 14.1668 0.559999 13.3002 0.559999H10.4602H9.86016V-1.19209e-06H13.3002C13.8735 -1.19209e-06 14.3668 0.0133324 14.7802 0.0399995C15.2068 0.0666658 15.5735 0.106666 15.8802 0.159999C16.1868 0.213333 16.4468 0.279999 16.6602 0.359999C16.8868 0.44 17.0935 0.533333 17.2802 0.639999C17.5735 0.786666 17.8535 0.999999 18.1202 1.28C18.3868 1.54667 18.6135 1.86 18.8002 2.22C19.0002 2.56667 19.1535 2.94667 19.2602 3.36C19.3802 3.77333 19.4468 4.2 19.4602 4.64V4.72ZM20.3791 14.98V0.0399995H28.5991V0.559999H20.9791V7.18H24.9591V7.74H20.9791V14.46H28.5991V14.98H20.3791ZM29.3048 14.98V0.0399995H37.5248V0.559999H29.9048V7.18H33.8848V7.74H29.9048V14.46H37.5248V14.98H29.3048ZM47.0306 14.42V10.28H47.5706V14.42V14.98H47.0306H38.5306L46.6906 0.519999H38.8106V4.68H38.2506V0.519999V-1.19209e-06H38.8106H47.6906L39.5306 14.42H47.0306Z" fill="white"/>
</svg>
